<svg width="40" height="40" viewBox="0 0 40 40" fill="none" xmlns="http://www.w3.org/2000/svg">
<path d="M39.2431 18.2188L21.7812 0.756942C21.5423 0.51725 21.2585 0.327066 20.946 0.197299C20.6335 0.0675313 20.2984 0.000732422 19.96 0.000732422C19.6216 0.000732422 19.2866 0.0675313 18.974 0.197299C18.6615 0.327066 18.3777 0.51725 18.1388 0.756942L14.5122 4.38359L19.1116 8.98296C19.6539 8.79838 20.2372 8.76988 20.795 8.90068C21.3528 9.03148 21.8626 9.31633 22.2664 9.72278C22.6701 10.1292 22.9516 10.6409 23.0787 11.1996C23.2058 11.7582 23.1735 12.3413 22.9853 12.8824L27.4133 17.3104C28.0751 17.083 28.7949 17.0893 29.4527 17.3282C30.1105 17.5671 30.6666 18.0242 31.0283 18.6234C31.39 19.2225 31.5355 19.9275 31.4405 20.6208C31.3455 21.3142 31.0157 21.9541 30.5062 22.4338C29.9967 22.9136 29.3382 23.2043 28.6404 23.2575C27.9426 23.3107 27.2476 23.1231 26.6713 22.7261C26.0949 22.3291 25.6721 21.7466 25.4731 21.0756C25.2741 20.4046 25.3111 19.6857 25.5778 19.0387L21.4427 14.9036V25.7835C22.0691 26.0939 22.5702 26.6095 22.8627 27.2444C23.1551 27.8794 23.2212 28.5954 23.0499 29.2732C22.8786 29.9509 22.4802 30.5495 21.9212 30.9693C21.3622 31.389 20.6762 31.6046 19.9775 31.58C19.2789 31.5555 18.6098 31.2923 18.0816 30.8343C17.5534 30.3764 17.1981 29.7513 17.0748 29.0632C16.9515 28.375 17.0676 27.6654 17.4039 27.0526C17.7402 26.4397 18.2764 25.9606 18.923 25.695V14.715C18.5489 14.5615 18.2089 14.3355 17.9225 14.0501C17.6361 13.7646 17.409 13.4253 17.2544 13.0517C17.0997 12.6781 17.0205 12.2775 17.0212 11.8732C17.022 11.4688 17.1028 11.0686 17.2589 10.6956L12.731 6.16477L0.756927 18.1431C0.51702 18.382 0.326655 18.6659 0.196761 18.9786C0.0668663 19.2912 0 19.6265 0 19.965C0 20.3036 0.0668663 20.6388 0.196761 20.9515C0.326655 21.2641 0.51702 21.548 0.756927 21.7869L18.2188 39.2431C18.4577 39.4828 18.7415 39.673 19.054 39.8027C19.3665 39.9325 19.7016 39.9993 20.04 39.9993C20.3784 39.9993 20.7134 39.9325 21.026 39.8027C21.3385 39.673 21.6223 39.4828 21.8612 39.2431L39.2431 21.8569C39.483 21.618 39.6733 21.3341 39.8032 21.0215C39.9331 20.7088 40 20.3736 40 20.035C40 19.6965 39.9331 19.3612 39.8032 19.0486C39.6733 18.7359 39.483 18.452 39.2431 18.2131" fill="#DD4C35"/>
<path d="M14.5121 4.38361L19.1114 8.98297C19.6538 8.7984 20.2371 8.76989 20.7949 8.9007C21.3527 9.0315 21.8625 9.31635 22.2663 9.7228C22.67 10.1292 22.9515 10.6409 23.0786 11.1996C23.2057 11.7582 23.1734 12.3413 22.9852 12.8824L27.4132 17.3104C28.075 17.083 28.7948 17.0893 29.4526 17.3282C30.1104 17.5671 30.6665 18.0242 31.0282 18.6234C31.3899 19.2225 31.5354 19.9275 31.4404 20.6209C31.3454 21.3142 31.0156 21.9541 30.5061 22.4339C29.9966 22.9136 29.3381 23.2043 28.6403 23.2575C27.9425 23.3107 27.2475 23.1231 26.6712 22.7261C26.0948 22.3291 25.672 21.7466 25.473 21.0756C25.274 20.4046 25.311 19.6858 25.5777 19.0387L21.4426 14.9036V25.7835C22.069 26.0939 22.5701 26.6095 22.8626 27.2445C23.155 27.8794 23.2211 28.5954 23.0498 29.2732C22.8785 29.9509 22.4801 30.5495 21.9211 30.9693C21.3621 31.389 20.6761 31.6046 19.9774 31.58C19.2788 31.5555 18.6097 31.2923 18.0815 30.8343C17.5533 30.3764 17.198 29.7513 17.0747 29.0632C16.9514 28.3751 17.0675 27.6655 17.4038 27.0526C17.7401 26.4397 18.2763 25.9606 18.9229 25.695V14.715C18.5488 14.5616 18.2088 14.3356 17.9224 14.0501C17.636 13.7646 17.4089 13.4253 17.2543 13.0517C17.0996 12.6781 17.0203 12.2775 17.0211 11.8732C17.0219 11.4688 17.1027 11.0686 17.2588 10.6956L12.7309 6.16479" fill="white"/>
</svg>
