<svg width="40" height="40" viewBox="0 0 40 40" fill="none" xmlns="http://www.w3.org/2000/svg">
<path d="M38.5858 4.32986L30.3494 0.364492C29.8843 0.140224 29.3609 0.0662147 28.8518 0.152725C28.3427 0.239235 27.8732 0.481979 27.5082 0.847307L0.546338 25.428C0.219211 25.7248 0.023394 26.1395 0.0019633 26.5807C-0.0194674 27.0219 0.135243 27.4535 0.432062 27.7806C0.467773 27.8192 0.503485 27.8564 0.542053 27.8906L2.74329 29.8905C3.03092 30.1522 3.40117 30.305 3.78972 30.3222C4.17826 30.3395 4.56057 30.22 4.87024 29.9847L37.346 5.35834C37.5912 5.1722 37.8836 5.05823 38.1902 5.02925C38.4968 5.00027 38.8053 5.05744 39.0811 5.19431C39.357 5.33119 39.5891 5.54234 39.7515 5.804C39.9138 6.06566 39.9999 6.36744 40 6.67536V6.57966C40 6.10956 39.8672 5.64901 39.6171 5.25101C39.3669 4.85301 39.0094 4.53371 38.5858 4.32986Z" fill="#0065A9"/>
<path d="M38.5858 35.67L30.3494 39.6368C29.8841 39.8604 29.3609 39.9341 28.852 39.8476C28.3431 39.7611 27.8735 39.5187 27.5082 39.154L0.546338 14.5718C0.219211 14.275 0.023394 13.8604 0.0019633 13.4192C-0.0194674 12.978 0.135243 12.5463 0.432062 12.2192C0.467773 12.1806 0.503485 12.1435 0.542053 12.1092L2.74329 10.1094C3.03122 9.8465 3.40231 9.69305 3.79181 9.67582C4.18132 9.65859 4.56451 9.77867 4.87453 10.0151L37.346 34.6415C37.5912 34.8276 37.8836 34.9416 38.1902 34.9706C38.4968 34.9996 38.8053 34.9424 39.0811 34.8055C39.357 34.6687 39.5891 34.4575 39.7515 34.1958C39.9138 33.9342 39.9999 33.6324 40 33.3245V33.4273C39.9985 33.8962 39.865 34.3551 39.6149 34.7517C39.3649 35.1483 39.0082 35.4665 38.5858 35.67Z" fill="#007ACC"/>
<path d="M30.3493 39.6367C29.8841 39.8604 29.3608 39.934 28.8519 39.8476C28.343 39.7611 27.8734 39.5187 27.5082 39.1539C27.7133 39.3564 27.9736 39.4938 28.2565 39.5489C28.5394 39.6041 28.8323 39.5745 29.0984 39.4639C29.3646 39.3534 29.5922 39.1667 29.7527 38.9273C29.9132 38.6879 29.9995 38.4065 30.0008 38.1183V1.8815C30.001 1.59194 29.9153 1.30882 29.7545 1.06801C29.5937 0.827201 29.3651 0.639534 29.0975 0.528783C28.83 0.418032 28.5356 0.389182 28.2516 0.445886C27.9677 0.502589 27.7069 0.642296 27.5024 0.847308C27.8674 0.482113 28.3369 0.239354 28.8459 0.152603C29.3549 0.0658526 29.8783 0.139397 30.3436 0.363066L38.5786 4.32272C39.0035 4.52555 39.3625 4.84441 39.614 5.24249C39.8654 5.64057 39.9992 6.10165 39.9999 6.57252V33.4273C40 33.8978 39.8672 34.3587 39.6168 34.757C39.3663 35.1553 39.0084 35.4748 38.5843 35.6785L30.3493 39.6367Z" fill="#1F9CF0"/>
</svg>
