<svg width="30" height="42" viewBox="0 0 30 42" fill="none" xmlns="http://www.w3.org/2000/svg">
<path d="M0 33.9007L0.249999 33.5452L12.0441 10.7232L12.0691 10.4817L6.87059 0.521202C6.77542 0.339059 6.62651 0.192052 6.44493 0.100979C6.26335 0.00990583 6.05829 -0.0206227 5.85877 0.0137125C5.65925 0.0480476 5.47536 0.145508 5.33312 0.292306C5.19088 0.439103 5.0975 0.627806 5.06618 0.831716L0 33.9007Z" fill="#FFC24A"/>
<path d="M0.147217 33.6307L0.335452 33.2557L12.0075 10.6707L6.82222 0.671198C6.73671 0.4973 6.59826 0.356344 6.42762 0.26945C6.25697 0.182555 6.06332 0.1544 5.87568 0.189201C5.68803 0.224003 5.51648 0.319889 5.38675 0.462492C5.25701 0.605096 5.17607 0.786741 5.15604 0.980213L0.147217 33.6307Z" fill="#FFA712"/>
<path d="M15.8587 18.015L19.7293 13.9649L15.8572 6.43301C15.772 6.27091 15.6453 6.13543 15.4906 6.04097C15.3358 5.94652 15.1589 5.89664 14.9786 5.89664C14.7982 5.89664 14.6213 5.94652 14.4666 6.04097C14.3118 6.13543 14.1851 6.27091 14.0999 6.43301L12.0308 10.4562V10.7997L15.8587 18.015Z" fill="#F4BD62"/>
<path d="M15.7897 17.85L19.553 13.9198L15.7897 6.59944C15.7281 6.44098 15.6229 6.30409 15.4868 6.20525C15.3506 6.10642 15.1894 6.04986 15.0224 6.04241C14.8555 6.03496 14.69 6.07692 14.5459 6.16325C14.4018 6.24958 14.2853 6.37658 14.2103 6.52894L12.1309 10.6226L12.0692 10.8311L15.7897 17.85Z" fill="#FFA50E"/>
<path d="M0.00286865 33.9022L0.116104 33.7852L0.526398 33.6157L15.6146 18.282L15.8058 17.751L12.0426 10.4337L0.00286865 33.9022Z" fill="#F6820C"/>
<path d="M16.3412 41.6351L30 33.8662L26.0971 9.36862C26.0691 9.19593 25.995 9.03444 25.8829 8.90188C25.7709 8.76932 25.6252 8.67082 25.4618 8.61719C25.2985 8.56356 25.1238 8.55688 24.957 8.59788C24.7902 8.63888 24.6377 8.72597 24.5162 8.8496L0 33.9008L13.5779 41.6336C14.0001 41.8739 14.4754 42 14.9588 42C15.4422 42 15.9176 41.8739 16.3397 41.6336" fill="#FDE068"/>
<path d="M29.8752 33.8017L26.0046 9.4886C25.9977 9.32342 25.943 9.16402 25.8473 9.03058C25.7517 8.89714 25.6193 8.79565 25.4671 8.73895C25.3148 8.68226 25.1495 8.67292 24.992 8.7121C24.8346 8.75128 24.6921 8.83723 24.5825 8.95908L0.147217 33.8542L13.5752 41.5046C13.9939 41.7429 14.4655 41.868 14.945 41.868C15.4245 41.868 15.8961 41.7429 16.3149 41.5046L29.8752 33.8017Z" fill="#FCCA3F"/>
<path d="M16.3412 41.4011C15.9191 41.6414 15.4437 41.7675 14.9603 41.7675C14.4769 41.7675 14.0015 41.6414 13.5794 41.4011L0.111764 33.7838L0 33.9008L13.5779 41.6336C14.0001 41.8739 14.4754 42 14.9588 42C15.4422 42 15.9176 41.8739 16.3397 41.6336L30 33.8663L29.9662 33.6562L16.3412 41.4011Z" fill="#EEAB37"/>
</svg>
