<svg width="40" height="40" viewBox="0 0 40 40" fill="none" xmlns="http://www.w3.org/2000/svg">
<path d="M20.0001 0.493713C8.95576 0.493713 0 9.44791 0 20.4938C0 29.3305 5.73062 36.8273 13.6773 39.4719C14.6768 39.657 15.0439 39.0381 15.0439 38.5098C15.0439 38.0329 15.0252 36.4573 15.0167 34.7861C9.45253 35.996 8.27845 32.4264 8.27845 32.4264C7.36868 30.1146 6.05783 29.5001 6.05783 29.5001C4.2433 28.2587 6.1946 28.2841 6.1946 28.2841C8.203 28.4253 9.26054 30.3452 9.26054 30.3452C11.0443 33.4028 13.9393 32.5188 15.0806 32.0079C15.26 30.7151 15.7784 29.8329 16.3503 29.3335C11.9081 28.8276 7.23818 27.1127 7.23818 19.4493C7.23818 17.2658 8.01948 15.4816 9.29897 14.081C9.09129 13.5772 8.40676 11.543 9.49268 8.78817C9.49268 8.78817 11.1722 8.25062 14.9941 10.8383C16.5894 10.395 18.3004 10.1729 20.0001 10.1654C21.6998 10.1729 23.412 10.395 25.0104 10.8383C28.8278 8.25062 30.505 8.78817 30.505 8.78817C31.5936 11.543 30.9087 13.5772 30.701 14.081C31.9833 15.4816 32.7593 17.2657 32.7593 19.4493C32.7593 27.1309 28.0806 28.8224 23.6271 29.3175C24.3444 29.9382 24.9836 31.1554 24.9836 33.0212C24.9836 35.6972 24.9604 37.851 24.9604 38.5098C24.9604 39.042 25.3204 39.6657 26.3343 39.4693C34.2766 36.8217 40 29.3275 40 20.4938C40 9.44791 31.0455 0.493713 20.0001 0.493713Z" fill="#161614"/>
<path d="M7.49069 28.9843C7.44677 29.0836 7.29023 29.1134 7.14796 29.0453C7.00287 28.9801 6.9213 28.8446 6.96836 28.7448C7.01149 28.6425 7.16804 28.614 7.31282 28.6827C7.45822 28.7478 7.54104 28.8846 7.49069 28.9843ZM8.4745 29.8621C8.37913 29.9506 8.19263 29.9095 8.06605 29.7697C7.93523 29.6303 7.91076 29.4439 8.00754 29.354C8.10589 29.2657 8.28674 29.307 8.41788 29.4466C8.54869 29.5876 8.57411 29.7728 8.47434 29.8623M9.14946 30.9852C9.0268 31.0704 8.82633 30.9905 8.70257 30.8126C8.58007 30.6349 8.58007 30.4216 8.70524 30.3361C8.82947 30.2506 9.0268 30.3275 9.15228 30.504C9.27463 30.6848 9.27463 30.8981 9.1493 30.9853M10.2908 32.286C10.1811 32.4068 9.9477 32.3745 9.77673 32.2095C9.60199 32.0482 9.55321 31.8194 9.66317 31.6984C9.77406 31.5773 10.0089 31.6114 10.1811 31.775C10.3547 31.9359 10.4076 32.1665 10.2908 32.286ZM11.7658 32.7252C11.7177 32.8818 11.4927 32.953 11.2662 32.8865C11.0401 32.8179 10.892 32.6344 10.9376 32.4761C10.9847 32.3185 11.2106 32.2443 11.4388 32.3155C11.6647 32.3837 11.8129 32.5658 11.7658 32.7252ZM13.4448 32.9114C13.4505 33.0764 13.2583 33.2132 13.0205 33.2162C12.7813 33.2213 12.5879 33.0879 12.5854 32.9257C12.5854 32.7591 12.7732 32.6236 13.0122 32.6196C13.25 32.6149 13.4448 32.7475 13.4448 32.9114ZM15.094 32.8482C15.1226 33.0091 14.9573 33.1744 14.7212 33.2184C14.489 33.2607 14.2741 33.1614 14.2445 33.0019C14.2156 32.8369 14.3841 32.6717 14.6158 32.6289C14.8523 32.5878 15.0639 32.6846 15.094 32.8482Z" fill="#161614"/>
</svg>
