<svg width="40" height="40" viewBox="0 0 40 40" fill="none" xmlns="http://www.w3.org/2000/svg">
<path d="M39.8112 17.0922C39.2626 13.394 37.6921 9.92251 35.2767 7.06884C32.8612 4.21517 29.6968 2.09275 26.1401 0.940721C24.7856 0.510589 23.3909 0.21875 21.9776 0.0696725C21.6021 0.0311179 19.0189 -0.0117207 18.6933 0.0196942C18.6077 0.0196942 18.3335 0.0539651 18.0879 0.0739563C15.2406 0.349547 12.4854 1.23151 10.0073 2.66054C7.5293 4.08958 5.38592 6.03258 3.7213 8.35891C1.85921 10.9435 0.64875 13.9395 0.192839 17.0922C0.0392488 18.0533 -0.0224315 19.0268 0.00863352 19.9995C-0.0240683 20.9736 0.036178 21.9485 0.188555 22.9111C0.736224 26.61 2.30634 30.0824 4.72188 32.9367C7.13742 35.791 10.3023 37.9137 13.8597 39.0655C15.2331 39.5007 16.6475 39.794 18.0807 39.9408C19.3564 40.0079 20.6348 40.0079 21.9105 39.9408C24.4224 39.6952 26.8659 38.9808 29.1145 37.8346C29.4572 37.659 29.5243 37.6118 29.4772 37.5733C29.4301 37.5347 27.9807 35.5842 26.2215 33.2081L23.0243 28.8899L19.026 22.9611C16.8213 19.7025 15.0078 17.038 14.9921 17.038C14.9764 17.038 14.9607 19.6668 14.9535 22.884C15.0555 24.8829 15.0269 26.8862 14.8679 28.8814C14.7992 29.0371 14.6771 29.1632 14.5237 29.2369C14.3981 29.2998 14.2881 29.3112 13.6984 29.3112H13.0229L12.843 29.1984C12.7315 29.1283 12.6408 29.0297 12.5803 28.9128L12.4989 28.7372L12.506 20.902L12.5189 13.0626L12.6388 12.9098C12.7198 12.8146 12.8163 12.734 12.9244 12.6713C13.0844 12.5942 13.1472 12.5856 13.8226 12.5856C14.6208 12.5856 14.7536 12.6171 14.965 12.8441C15.0235 12.9069 17.1926 16.1726 19.7871 20.1081C22.3817 24.0435 25.9273 29.4169 27.6751 32.0543L30.838 36.8493L30.998 36.7437C32.5222 35.7301 33.9039 34.517 35.1062 33.1367C37.625 30.2541 39.2586 26.7061 39.8112 22.9183C39.9641 21.9533 40.0243 20.976 39.9912 19.9995C40.0236 19.0269 39.9634 18.0534 39.8112 17.0922ZM27.301 19.7411L27.2896 26.768L26.0501 24.8688L24.8078 22.9697V17.8576C24.8078 14.5562 24.8235 12.6999 24.8464 12.6099C24.8742 12.5059 24.9229 12.4086 24.9894 12.324C25.0559 12.2393 25.1389 12.169 25.2333 12.1173C25.3933 12.0344 25.4518 12.0273 26.0658 12.0273C26.637 12.0273 26.7455 12.0344 26.874 12.1058C26.9675 12.1523 27.0506 12.2171 27.1186 12.2963C27.1865 12.3756 27.2379 12.4676 27.2696 12.5671C27.301 12.6727 27.3081 14.8446 27.301 19.7411Z" fill="black"/>
</svg>
