<svg width="44" height="46" viewBox="0 0 44 46" fill="none" xmlns="http://www.w3.org/2000/svg">
<path d="M22 45.553C21.3459 45.5533 20.7032 45.3933 20.1366 45.0891L14.207 41.8237C13.3221 41.363 13.7533 41.2002 14.046 41.1052C14.9871 40.8347 15.8883 40.4559 16.7285 39.9775C16.7988 39.9473 16.8763 39.9342 16.9535 39.9396C17.0308 39.9449 17.1054 39.9685 17.1701 40.0081L21.7264 42.5261C21.8112 42.5678 21.9058 42.5896 22.0017 42.5896C22.0977 42.5896 22.1922 42.5678 22.2771 42.5261L40.0451 32.986C40.1283 32.9397 40.197 32.874 40.2447 32.7955C40.2924 32.717 40.3173 32.6283 40.317 32.5381V13.4548C40.3171 13.3632 40.2917 13.2731 40.2435 13.1933C40.1953 13.1134 40.1258 13.0465 40.0416 12.9989L22.2736 3.46687C22.1898 3.42298 22.0953 3.39992 21.9991 3.39992C21.903 3.39992 21.8084 3.42298 21.7247 3.46687L3.96703 13.0021C3.88232 13.0487 3.81199 13.1149 3.76284 13.1942C3.71369 13.2735 3.68739 13.3632 3.68648 13.4548V32.5301C3.68672 32.6201 3.71267 32.7083 3.76166 32.7859C3.81065 32.8635 3.88093 32.9275 3.9653 32.9715L8.83851 35.5877C11.4795 36.8152 13.0969 35.3686 13.0969 33.9155V15.0819C13.0969 15.0184 13.1104 14.9555 13.1365 14.8969C13.1626 14.8383 13.2009 14.785 13.2491 14.7401C13.2974 14.6952 13.3546 14.6596 13.4177 14.6354C13.4807 14.6111 13.5483 14.5986 13.6165 14.5986H15.8678C16.0056 14.5986 16.1377 14.6495 16.2352 14.7401C16.3326 14.8307 16.3873 14.9537 16.3873 15.0819V33.9171C16.3873 37.1954 14.4685 39.0722 11.1262 39.0722C9.68427 39.0955 8.26497 38.7368 7.034 38.0379L2.3634 35.5458C1.7964 35.2386 1.32593 34.7985 0.99895 34.2693C0.671975 33.7402 0.499937 33.1405 0.500012 32.5301V13.4548C0.498327 12.8435 0.669637 12.2425 0.996727 11.7123C1.32382 11.1821 1.79516 10.7413 2.3634 10.4342L20.1332 0.890957C20.7056 0.599645 21.3475 0.44696 22 0.44696C22.6525 0.44696 23.2945 0.599645 23.8669 0.890957L41.6349 10.4342C42.2018 10.7408 42.6724 11.1803 42.9997 11.7089C43.327 12.2375 43.4995 12.8367 43.5 13.4467V32.5301C43.499 33.1405 43.3264 33.7399 42.9992 34.269C42.672 34.798 42.2016 35.2382 41.6349 35.5458L23.8669 45.0891C23.2992 45.3937 22.6553 45.5538 22 45.553Z" fill="#83CD29"/>
<path d="M18.63 26.1459C18.63 26.0177 18.6847 25.8948 18.7821 25.8041C18.8796 25.7135 19.0117 25.6626 19.1495 25.6626H21.4476C21.5704 25.6629 21.689 25.7038 21.7826 25.7778C21.8761 25.8518 21.9384 25.9542 21.9584 26.0669C22.3048 28.2433 23.3439 29.3404 28.0422 29.3404C31.7845 29.3404 33.3795 28.5526 33.3795 26.7049C33.3795 25.64 32.9275 24.849 27.1105 24.319C22.2477 23.8712 19.2413 22.8692 19.2413 19.2542C19.2413 15.9195 22.2632 13.93 27.3287 13.93C33.021 13.93 35.8386 15.7681 36.1954 19.7117C36.2008 19.7775 36.1917 19.8437 36.1686 19.9062C36.1455 19.9686 36.1089 20.026 36.061 20.0747C36.0131 20.1235 35.955 20.1626 35.8903 20.1897C35.8255 20.2167 35.7555 20.2311 35.6845 20.232H33.3708C33.2548 20.2305 33.1426 20.1929 33.0522 20.1252C32.9618 20.0574 32.8984 19.9635 32.8721 19.8583C32.3197 17.5691 30.9671 16.8378 27.3304 16.8378C23.2434 16.8378 22.7689 18.162 22.7689 19.1543C22.7689 20.3561 23.33 20.7073 28.8475 21.3855C34.3077 22.0573 36.9019 23.0077 36.9019 26.5776C36.9019 30.1797 33.6739 32.2417 28.0439 32.2417C20.2596 32.2514 18.63 28.9312 18.63 26.1459Z" fill="#83CD29"/>
</svg>
