<svg width="44" height="36" viewBox="0 0 44 36" fill="none" xmlns="http://www.w3.org/2000/svg">
<path d="M22 21.5356C24.1204 21.5356 25.8393 19.9366 25.8393 17.9642C25.8393 15.9917 24.1204 14.3927 22 14.3927C19.8796 14.3927 18.1607 15.9917 18.1607 17.9642C18.1607 19.9366 19.8796 21.5356 22 21.5356Z" fill="#00D8FF"/>
<path d="M22 26.1527C17.3854 26.2565 12.7823 25.6779 8.36286 24.4384C6.32131 23.8364 4.4172 22.888 2.74675 21.6413C2.10932 21.2153 1.57849 20.6662 1.19068 20.0315C0.802862 19.3967 0.567248 18.6915 0.5 17.9641C0.5 15.6027 3.28886 13.2884 7.9605 11.7741C12.4981 10.4323 17.2392 9.78202 22 9.84839C26.6973 9.78734 31.3748 10.4259 35.8552 11.7398C37.8214 12.3229 39.6609 13.2254 41.2886 14.4055C41.9151 14.8116 42.438 15.3409 42.8201 15.9558C43.2023 16.5708 43.4344 17.2564 43.5 17.9641C43.5 20.4184 40.3825 22.9055 35.3607 24.4513C31.0268 25.6504 26.5209 26.2242 22 26.1527ZM22 11.557C17.4452 11.5003 12.9098 12.1185 8.56404 13.3884C4.26404 14.7841 2.33671 16.6927 2.33671 17.9598C2.33671 19.2855 4.40839 21.3698 8.95718 22.817C13.1851 23.9968 17.5873 24.5459 22 24.4441C26.3252 24.5161 30.6367 23.9717 34.7848 22.8298C39.5071 21.3741 41.6571 19.287 41.6571 17.9641C41.5797 17.5101 41.4018 17.0761 41.1348 16.6893C40.8679 16.3025 40.5176 15.9714 40.1061 15.717C38.6498 14.67 37.0065 13.8702 35.2517 13.3541C30.9655 12.1023 26.4919 11.4956 22 11.557Z" fill="#00D8FF"/>
<path d="M13.2771 35.777C12.5607 35.7923 11.8527 35.6306 11.2254 35.3084C9.02624 34.1284 8.26453 30.7256 9.18749 26.2041C10.2051 21.8771 11.9684 17.7317 14.4089 13.9284C16.6983 10.1129 19.6291 6.66258 23.0903 3.70842C24.6155 2.41514 26.375 1.38348 28.2872 0.661274C28.9788 0.359758 29.7333 0.203461 30.4971 0.203461C31.2609 0.203461 32.0153 0.359758 32.707 0.661274C34.9936 1.88699 35.7507 5.64127 34.6834 10.4598C33.6344 14.5521 31.9169 18.4705 29.591 22.0784C27.3822 25.8489 24.5437 29.2692 21.1814 32.2113C19.6008 33.5553 17.7665 34.6155 15.7711 35.3384C14.9722 35.6142 14.1291 35.7625 13.2771 35.777ZM15.9999 14.777C13.6719 18.4189 11.982 22.3823 10.9935 26.5184C10.1442 30.6827 10.9597 33.187 12.1453 33.8241C13.3738 34.4856 16.3562 33.8584 19.9774 30.9156C23.1871 28.0969 25.8964 24.823 28.0046 21.2156C30.2328 17.7663 31.8803 14.02 32.8897 10.107C33.8941 5.57127 33.0264 2.79413 31.7947 2.13413C31.3331 1.9696 30.8398 1.89594 30.3461 1.91783C29.8523 1.93971 29.3687 2.05666 28.926 2.26127C27.224 2.91463 25.6592 3.84217 24.3035 5.00127C20.9966 7.83097 18.197 11.134 16.0107 14.7856L15.9999 14.777Z" fill="#00D8FF"/>
<path d="M30.7183 35.7956C28.6374 35.7956 25.9945 34.6241 23.2425 32.4227C19.7206 29.4417 16.7402 25.9504 14.4167 22.0841C12.0068 18.3332 10.2575 14.2478 9.2352 9.98271C8.79186 8.10627 8.7097 6.17156 8.99256 4.26843C9.05795 3.56244 9.28905 2.87839 9.66955 2.26452C10.0501 1.65065 10.5707 1.1219 11.1948 0.715572C13.4784 -0.514428 17.353 0.749858 21.3075 4.01557C24.5948 6.90441 27.3864 10.2451 29.585 13.9213C31.9934 17.5846 33.761 21.5806 34.8217 25.7599C35.2842 27.7052 35.3555 29.7133 35.0321 31.6827C34.9552 32.409 34.7103 33.1112 34.3143 33.7413C33.9183 34.3713 33.3805 34.9142 32.7378 35.3327C32.1207 35.6509 31.4237 35.8106 30.7183 35.7956ZM16.0062 21.2241C18.2351 24.9191 21.0821 28.2604 24.4403 31.1227C27.8941 33.887 30.6338 34.4813 31.8117 33.837C33.0403 33.1727 33.9464 30.4613 33.0127 26.0741C31.9897 22.0841 30.2943 18.2697 27.9893 14.7727C25.8913 11.2543 23.2267 8.05537 20.0881 5.287C16.3655 2.21271 13.3463 1.52557 12.1162 2.18843C11.7328 2.47826 11.4182 2.83889 11.1922 3.24755C10.9662 3.65621 10.8337 4.10403 10.8032 4.56272C10.559 6.25998 10.6385 7.98401 11.0381 9.65557C12.0215 13.7343 13.6991 17.6407 16.0077 21.227L16.0062 21.2241Z" fill="#00D8FF"/>
</svg>
