<svg width="1440" height="1024" viewBox="0 0 1440 1024" fill="none" xmlns="http://www.w3.org/2000/svg">
<line x1="321.793" y1="-402" x2="321.793" y2="207.452" stroke="black" stroke-opacity="0.03"/>
<line x1="619.377" y1="-402" x2="619.377" y2="207.452" stroke="black" stroke-opacity="0.03"/>
<line x1="916.961" y1="-402" x2="916.961" y2="207.452" stroke="black" stroke-opacity="0.03"/>
<line x1="351.552" y1="-402" x2="351.552" y2="207.452" stroke="black" stroke-opacity="0.03"/>
<line x1="649.135" y1="-402" x2="649.135" y2="207.452" stroke="black" stroke-opacity="0.03"/>
<line x1="946.719" y1="-402" x2="946.719" y2="207.452" stroke="black" stroke-opacity="0.03"/>
<line x1="381.31" y1="-402" x2="381.31" y2="207.452" stroke="black" stroke-opacity="0.03"/>
<line x1="678.894" y1="-402" x2="678.894" y2="207.452" stroke="black" stroke-opacity="0.03"/>
<line x1="976.478" y1="-402" x2="976.478" y2="207.452" stroke="black" stroke-opacity="0.03"/>
<line x1="411.068" y1="-402" x2="411.068" y2="207.452" stroke="black" stroke-opacity="0.03"/>
<line x1="708.652" y1="-402" x2="708.652" y2="207.452" stroke="black" stroke-opacity="0.03"/>
<line x1="1006.24" y1="-402" x2="1006.24" y2="207.452" stroke="black" stroke-opacity="0.03"/>
<line x1="440.827" y1="-402" x2="440.827" y2="207.452" stroke="black" stroke-opacity="0.03"/>
<line x1="738.411" y1="-402" x2="738.411" y2="207.452" stroke="black" stroke-opacity="0.03"/>
<line x1="1035.99" y1="-402" x2="1035.99" y2="207.452" stroke="black" stroke-opacity="0.03"/>
<line x1="470.585" y1="-402" x2="470.585" y2="207.452" stroke="black" stroke-opacity="0.03"/>
<line x1="768.169" y1="-402" x2="768.169" y2="207.452" stroke="black" stroke-opacity="0.03"/>
<line x1="1065.75" y1="-402" x2="1065.75" y2="207.452" stroke="black" stroke-opacity="0.03"/>
<line x1="500.344" y1="-402" x2="500.344" y2="207.452" stroke="black" stroke-opacity="0.03"/>
<line x1="797.927" y1="-402" x2="797.927" y2="207.452" stroke="black" stroke-opacity="0.03"/>
<line x1="1095.51" y1="-402" x2="1095.51" y2="207.452" stroke="black" stroke-opacity="0.03"/>
<line x1="530.102" y1="-402" x2="530.102" y2="207.452" stroke="black" stroke-opacity="0.03"/>
<line x1="827.686" y1="-402" x2="827.686" y2="207.452" stroke="black" stroke-opacity="0.03"/>
<line x1="1125.27" y1="-402" x2="1125.27" y2="207.452" stroke="black" stroke-opacity="0.03"/>
<line x1="559.86" y1="-402" x2="559.86" y2="207.452" stroke="black" stroke-opacity="0.03"/>
<line x1="857.444" y1="-402" x2="857.444" y2="207.452" stroke="black" stroke-opacity="0.03"/>
<line x1="589.619" y1="-402" x2="589.619" y2="207.452" stroke="black" stroke-opacity="0.03"/>
<line x1="887.203" y1="-402" x2="887.203" y2="207.452" stroke="black" stroke-opacity="0.03"/>
<line x1="291.535" y1="12.9272" x2="1148.58" y2="12.9272" stroke="black" stroke-opacity="0.03"/>
<line x1="291.535" y1="42.6855" x2="1148.58" y2="42.6855" stroke="black" stroke-opacity="0.03"/>
<line x1="291.535" y1="72.444" x2="1148.58" y2="72.444" stroke="black" stroke-opacity="0.03"/>
<line x1="291.535" y1="103.393" x2="1148.58" y2="103.393" stroke="black" stroke-opacity="0.03"/>
<line x1="291.535" y1="132.556" x2="1148.58" y2="132.556" stroke="black" stroke-opacity="0.03"/>
<line x1="291.535" y1="162.314" x2="1148.58" y2="162.314" stroke="black" stroke-opacity="0.03"/>
<line x1="291.535" y1="192.073" x2="1148.58" y2="192.073" stroke="black" stroke-opacity="0.03"/>
<line x1="60.2212" y1="-402" x2="60.2212" y2="207.452" stroke="black" stroke-opacity="0.03"/>
<line x1="89.9795" y1="-402" x2="89.9795" y2="207.452" stroke="black" stroke-opacity="0.03"/>
<line x1="119.738" y1="-402" x2="119.738" y2="207.452" stroke="black" stroke-opacity="0.03"/>
<line x1="149.496" y1="-402" x2="149.496" y2="207.452" stroke="black" stroke-opacity="0.03"/>
<line x1="179.255" y1="-402" x2="179.255" y2="207.452" stroke="black" stroke-opacity="0.03"/>
<line x1="209.013" y1="-402" x2="209.013" y2="207.452" stroke="black" stroke-opacity="0.03"/>
<line x1="238.771" y1="-402" x2="238.771" y2="207.452" stroke="black" stroke-opacity="0.03"/>
<line x1="268.53" y1="-402" x2="268.53" y2="207.452" stroke="black" stroke-opacity="0.03"/>
<line x1="0.704346" y1="-402" x2="0.704346" y2="207.452" stroke="black" stroke-opacity="0.03"/>
<line x1="30.4629" y1="-402" x2="30.4629" y2="207.452" stroke="black" stroke-opacity="0.03"/>
<line x1="-565.205" y1="12.9272" x2="291.837" y2="12.9272" stroke="black" stroke-opacity="0.03"/>
<line x1="-565.205" y1="42.6855" x2="291.837" y2="42.6855" stroke="black" stroke-opacity="0.03"/>
<line x1="-565.205" y1="72.444" x2="291.837" y2="72.444" stroke="black" stroke-opacity="0.03"/>
<line x1="-565.205" y1="103.393" x2="291.837" y2="103.393" stroke="black" stroke-opacity="0.03"/>
<line x1="-565.205" y1="132.556" x2="291.837" y2="132.556" stroke="black" stroke-opacity="0.03"/>
<line x1="-565.205" y1="162.314" x2="291.837" y2="162.314" stroke="black" stroke-opacity="0.03"/>
<line x1="-565.205" y1="192.073" x2="291.837" y2="192.073" stroke="black" stroke-opacity="0.03"/>
<line x1="1178.73" y1="-402" x2="1178.73" y2="207.452" stroke="black" stroke-opacity="0.03"/>
<line x1="1208.49" y1="-402" x2="1208.49" y2="207.452" stroke="black" stroke-opacity="0.03"/>
<line x1="1238.25" y1="-402" x2="1238.25" y2="207.452" stroke="black" stroke-opacity="0.03"/>
<line x1="1268.01" y1="-402" x2="1268.01" y2="207.452" stroke="black" stroke-opacity="0.03"/>
<line x1="1297.77" y1="-402" x2="1297.77" y2="207.452" stroke="black" stroke-opacity="0.03"/>
<line x1="1327.53" y1="-402" x2="1327.53" y2="207.452" stroke="black" stroke-opacity="0.03"/>
<line x1="1357.28" y1="-402" x2="1357.28" y2="207.452" stroke="black" stroke-opacity="0.03"/>
<line x1="1387.04" y1="-402" x2="1387.04" y2="207.452" stroke="black" stroke-opacity="0.03"/>
<line x1="1416.8" y1="-402" x2="1416.8" y2="207.452" stroke="black" stroke-opacity="0.03"/>
<line x1="1148.48" y1="12.9272" x2="2005.52" y2="12.9272" stroke="black" stroke-opacity="0.03"/>
<line x1="1148.48" y1="42.6855" x2="2005.52" y2="42.6855" stroke="black" stroke-opacity="0.03"/>
<line x1="1148.48" y1="72.444" x2="2005.52" y2="72.444" stroke="black" stroke-opacity="0.03"/>
<line x1="1148.48" y1="103.393" x2="2005.52" y2="103.393" stroke="black" stroke-opacity="0.03"/>
<line x1="1148.48" y1="132.556" x2="2005.52" y2="132.556" stroke="black" stroke-opacity="0.03"/>
<line x1="1148.48" y1="162.314" x2="2005.52" y2="162.314" stroke="black" stroke-opacity="0.03"/>
<line x1="1148.48" y1="192.073" x2="2005.52" y2="192.073" stroke="black" stroke-opacity="0.03"/>
<line x1="1178.73" y1="207.452" x2="1178.73" y2="816.904" stroke="black" stroke-opacity="0.03"/>
<line x1="1208.49" y1="207.452" x2="1208.49" y2="816.904" stroke="black" stroke-opacity="0.03"/>
<line x1="1238.25" y1="207.452" x2="1238.25" y2="816.904" stroke="black" stroke-opacity="0.03"/>
<line x1="1268.01" y1="207.452" x2="1268.01" y2="816.904" stroke="black" stroke-opacity="0.03"/>
<line x1="1297.77" y1="207.452" x2="1297.77" y2="816.904" stroke="black" stroke-opacity="0.03"/>
<line x1="1327.53" y1="207.452" x2="1327.53" y2="816.904" stroke="black" stroke-opacity="0.03"/>
<line x1="1357.28" y1="207.452" x2="1357.28" y2="816.904" stroke="black" stroke-opacity="0.03"/>
<line x1="1387.04" y1="207.452" x2="1387.04" y2="816.904" stroke="black" stroke-opacity="0.03"/>
<line x1="1416.8" y1="207.452" x2="1416.8" y2="816.904" stroke="black" stroke-opacity="0.03"/>
<line x1="1148.48" y1="237.306" x2="2005.52" y2="237.306" stroke="black" stroke-opacity="0.03"/>
<line x1="1148.48" y1="474.182" x2="2005.52" y2="474.182" stroke="black" stroke-opacity="0.03"/>
<line x1="1148.48" y1="266.469" x2="2005.52" y2="266.469" stroke="black" stroke-opacity="0.03"/>
<line x1="1148.48" y1="503.345" x2="2005.52" y2="503.345" stroke="black" stroke-opacity="0.03"/>
<line x1="1148.48" y1="296.227" x2="2005.52" y2="296.227" stroke="black" stroke-opacity="0.03"/>
<line x1="1148.48" y1="533.104" x2="2005.52" y2="533.104" stroke="black" stroke-opacity="0.03"/>
<line x1="1148.48" y1="325.985" x2="2005.52" y2="325.985" stroke="black" stroke-opacity="0.03"/>
<line x1="1148.48" y1="562.862" x2="2005.52" y2="562.862" stroke="black" stroke-opacity="0.03"/>
<line x1="1148.48" y1="355.744" x2="2005.52" y2="355.744" stroke="black" stroke-opacity="0.03"/>
<line x1="1148.48" y1="592.621" x2="2005.52" y2="592.621" stroke="black" stroke-opacity="0.03"/>
<line x1="1148.48" y1="385.502" x2="2005.52" y2="385.502" stroke="black" stroke-opacity="0.03"/>
<line x1="1148.48" y1="622.379" x2="2005.52" y2="622.379" stroke="black" stroke-opacity="0.03"/>
<line x1="1148.48" y1="415.261" x2="2005.52" y2="415.261" stroke="black" stroke-opacity="0.03"/>
<line x1="1148.48" y1="652.138" x2="2005.52" y2="652.138" stroke="black" stroke-opacity="0.03"/>
<line x1="1148.48" y1="445.019" x2="2005.52" y2="445.019" stroke="black" stroke-opacity="0.03"/>
<line x1="1148.48" y1="681.896" x2="2005.52" y2="681.896" stroke="black" stroke-opacity="0.03"/>
<line x1="1148.48" y1="712.845" x2="2005.52" y2="712.845" stroke="black" stroke-opacity="0.03"/>
<line x1="1148.48" y1="742.008" x2="2005.52" y2="742.008" stroke="black" stroke-opacity="0.03"/>
<line x1="1148.48" y1="771.766" x2="2005.52" y2="771.766" stroke="black" stroke-opacity="0.03"/>
<line x1="1148.48" y1="801.525" x2="2005.52" y2="801.525" stroke="black" stroke-opacity="0.03"/>
<line x1="60.2212" y1="207.452" x2="60.2212" y2="816.904" stroke="black" stroke-opacity="0.03"/>
<line x1="89.9795" y1="207.452" x2="89.9795" y2="816.904" stroke="black" stroke-opacity="0.03"/>
<line x1="119.738" y1="207.452" x2="119.738" y2="816.904" stroke="black" stroke-opacity="0.03"/>
<line x1="149.496" y1="207.452" x2="149.496" y2="816.904" stroke="black" stroke-opacity="0.03"/>
<line x1="179.255" y1="207.452" x2="179.255" y2="816.904" stroke="black" stroke-opacity="0.03"/>
<line x1="209.013" y1="207.452" x2="209.013" y2="816.904" stroke="black" stroke-opacity="0.03"/>
<line x1="238.771" y1="207.452" x2="238.771" y2="816.904" stroke="black" stroke-opacity="0.03"/>
<line x1="268.53" y1="207.452" x2="268.53" y2="816.904" stroke="black" stroke-opacity="0.03"/>
<line x1="0.704346" y1="207.452" x2="0.704346" y2="816.904" stroke="black" stroke-opacity="0.03"/>
<line x1="30.4629" y1="207.452" x2="30.4629" y2="816.904" stroke="black" stroke-opacity="0.03"/>
<line x1="-565.205" y1="237.306" x2="291.837" y2="237.306" stroke="black" stroke-opacity="0.03"/>
<line x1="-565.205" y1="474.182" x2="291.837" y2="474.182" stroke="black" stroke-opacity="0.03"/>
<line x1="-565.205" y1="266.469" x2="291.837" y2="266.469" stroke="black" stroke-opacity="0.03"/>
<line x1="-565.205" y1="503.345" x2="291.837" y2="503.345" stroke="black" stroke-opacity="0.03"/>
<line x1="-565.205" y1="296.227" x2="291.837" y2="296.227" stroke="black" stroke-opacity="0.03"/>
<line x1="-565.205" y1="533.104" x2="291.837" y2="533.104" stroke="black" stroke-opacity="0.03"/>
<line x1="-565.205" y1="325.985" x2="291.837" y2="325.985" stroke="black" stroke-opacity="0.03"/>
<line x1="-565.205" y1="562.862" x2="291.837" y2="562.862" stroke="black" stroke-opacity="0.03"/>
<line x1="-565.205" y1="355.744" x2="291.837" y2="355.744" stroke="black" stroke-opacity="0.03"/>
<line x1="-565.205" y1="592.621" x2="291.837" y2="592.621" stroke="black" stroke-opacity="0.03"/>
<line x1="-565.205" y1="385.502" x2="291.837" y2="385.502" stroke="black" stroke-opacity="0.03"/>
<line x1="-565.205" y1="622.379" x2="291.837" y2="622.379" stroke="black" stroke-opacity="0.03"/>
<line x1="-565.205" y1="415.261" x2="291.837" y2="415.261" stroke="black" stroke-opacity="0.03"/>
<line x1="-565.205" y1="652.138" x2="291.837" y2="652.138" stroke="black" stroke-opacity="0.03"/>
<line x1="-565.205" y1="445.019" x2="291.837" y2="445.019" stroke="black" stroke-opacity="0.03"/>
<line x1="-565.205" y1="681.896" x2="291.837" y2="681.896" stroke="black" stroke-opacity="0.03"/>
<line x1="-565.205" y1="712.845" x2="291.837" y2="712.845" stroke="black" stroke-opacity="0.03"/>
<line x1="-565.205" y1="742.008" x2="291.837" y2="742.008" stroke="black" stroke-opacity="0.03"/>
<line x1="-565.205" y1="771.766" x2="291.837" y2="771.766" stroke="black" stroke-opacity="0.03"/>
<line x1="-565.205" y1="801.525" x2="291.837" y2="801.525" stroke="black" stroke-opacity="0.03"/>
<line x1="321.793" y1="817.548" x2="321.793" y2="1427" stroke="black" stroke-opacity="0.03"/>
<line x1="619.377" y1="817.548" x2="619.377" y2="1427" stroke="black" stroke-opacity="0.03"/>
<line x1="916.961" y1="817.548" x2="916.961" y2="1427" stroke="black" stroke-opacity="0.03"/>
<line x1="351.552" y1="817.548" x2="351.552" y2="1427" stroke="black" stroke-opacity="0.03"/>
<line x1="649.135" y1="817.548" x2="649.135" y2="1427" stroke="black" stroke-opacity="0.03"/>
<line x1="946.719" y1="817.548" x2="946.719" y2="1427" stroke="black" stroke-opacity="0.03"/>
<line x1="381.31" y1="817.548" x2="381.31" y2="1427" stroke="black" stroke-opacity="0.03"/>
<line x1="678.894" y1="817.548" x2="678.894" y2="1427" stroke="black" stroke-opacity="0.03"/>
<line x1="976.478" y1="817.548" x2="976.478" y2="1427" stroke="black" stroke-opacity="0.03"/>
<line x1="411.068" y1="817.548" x2="411.068" y2="1427" stroke="black" stroke-opacity="0.03"/>
<line x1="708.652" y1="817.548" x2="708.652" y2="1427" stroke="black" stroke-opacity="0.03"/>
<line x1="1006.24" y1="817.548" x2="1006.24" y2="1427" stroke="black" stroke-opacity="0.03"/>
<line x1="440.827" y1="817.548" x2="440.827" y2="1427" stroke="black" stroke-opacity="0.03"/>
<line x1="738.411" y1="817.548" x2="738.411" y2="1427" stroke="black" stroke-opacity="0.03"/>
<line x1="1035.99" y1="817.548" x2="1035.99" y2="1427" stroke="black" stroke-opacity="0.03"/>
<line x1="470.585" y1="817.548" x2="470.585" y2="1427" stroke="black" stroke-opacity="0.03"/>
<line x1="768.169" y1="817.548" x2="768.169" y2="1427" stroke="black" stroke-opacity="0.03"/>
<line x1="1065.75" y1="817.548" x2="1065.75" y2="1427" stroke="black" stroke-opacity="0.03"/>
<line x1="500.344" y1="817.548" x2="500.344" y2="1427" stroke="black" stroke-opacity="0.03"/>
<line x1="797.927" y1="817.548" x2="797.927" y2="1427" stroke="black" stroke-opacity="0.03"/>
<line x1="1095.51" y1="817.548" x2="1095.51" y2="1427" stroke="black" stroke-opacity="0.03"/>
<line x1="530.102" y1="817.548" x2="530.102" y2="1427" stroke="black" stroke-opacity="0.03"/>
<line x1="827.686" y1="817.548" x2="827.686" y2="1427" stroke="black" stroke-opacity="0.03"/>
<line x1="1125.27" y1="817.548" x2="1125.27" y2="1427" stroke="black" stroke-opacity="0.03"/>
<line x1="559.86" y1="817.548" x2="559.86" y2="1427" stroke="black" stroke-opacity="0.03"/>
<line x1="857.444" y1="817.548" x2="857.444" y2="1427" stroke="black" stroke-opacity="0.03"/>
<line x1="589.619" y1="817.548" x2="589.619" y2="1427" stroke="black" stroke-opacity="0.03"/>
<line x1="887.203" y1="817.548" x2="887.203" y2="1427" stroke="black" stroke-opacity="0.03"/>
<line x1="291.535" y1="847.402" x2="1148.58" y2="847.402" stroke="black" stroke-opacity="0.03"/>
<line x1="291.535" y1="876.565" x2="1148.58" y2="876.565" stroke="black" stroke-opacity="0.03"/>
<line x1="291.535" y1="906.323" x2="1148.58" y2="906.323" stroke="black" stroke-opacity="0.03"/>
<line x1="291.535" y1="936.082" x2="1148.58" y2="936.082" stroke="black" stroke-opacity="0.03"/>
<line x1="291.535" y1="965.84" x2="1148.58" y2="965.84" stroke="black" stroke-opacity="0.03"/>
<line x1="291.535" y1="995.598" x2="1148.58" y2="995.598" stroke="black" stroke-opacity="0.03"/>
<line x1="321.894" y1="817.548" x2="321.894" y2="1427" stroke="black" stroke-opacity="0.03"/>
<line x1="619.478" y1="817.548" x2="619.478" y2="1427" stroke="black" stroke-opacity="0.03"/>
<line x1="917.062" y1="817.548" x2="917.062" y2="1427" stroke="black" stroke-opacity="0.03"/>
<line x1="351.652" y1="817.548" x2="351.652" y2="1427" stroke="black" stroke-opacity="0.03"/>
<line x1="649.236" y1="817.548" x2="649.236" y2="1427" stroke="black" stroke-opacity="0.03"/>
<line x1="946.82" y1="817.548" x2="946.82" y2="1427" stroke="black" stroke-opacity="0.03"/>
<line x1="381.411" y1="817.548" x2="381.411" y2="1427" stroke="black" stroke-opacity="0.03"/>
<line x1="678.995" y1="817.548" x2="678.995" y2="1427" stroke="black" stroke-opacity="0.03"/>
<line x1="976.578" y1="817.548" x2="976.578" y2="1427" stroke="black" stroke-opacity="0.03"/>
<line x1="411.169" y1="817.548" x2="411.169" y2="1427" stroke="black" stroke-opacity="0.03"/>
<line x1="708.753" y1="817.548" x2="708.753" y2="1427" stroke="black" stroke-opacity="0.03"/>
<line x1="1006.34" y1="817.548" x2="1006.34" y2="1427" stroke="black" stroke-opacity="0.03"/>
<line x1="440.927" y1="817.548" x2="440.927" y2="1427" stroke="black" stroke-opacity="0.03"/>
<line x1="738.511" y1="817.548" x2="738.511" y2="1427" stroke="black" stroke-opacity="0.03"/>
<line x1="1036.1" y1="817.548" x2="1036.1" y2="1427" stroke="black" stroke-opacity="0.03"/>
<line x1="470.686" y1="817.548" x2="470.686" y2="1427" stroke="black" stroke-opacity="0.03"/>
<line x1="768.27" y1="817.548" x2="768.27" y2="1427" stroke="black" stroke-opacity="0.03"/>
<line x1="1065.85" y1="817.548" x2="1065.85" y2="1427" stroke="black" stroke-opacity="0.03"/>
<line x1="500.444" y1="817.548" x2="500.444" y2="1427" stroke="black" stroke-opacity="0.03"/>
<line x1="798.028" y1="817.548" x2="798.028" y2="1427" stroke="black" stroke-opacity="0.03"/>
<line x1="1095.61" y1="817.548" x2="1095.61" y2="1427" stroke="black" stroke-opacity="0.03"/>
<line x1="530.203" y1="817.548" x2="530.203" y2="1427" stroke="black" stroke-opacity="0.03"/>
<line x1="827.787" y1="817.548" x2="827.787" y2="1427" stroke="black" stroke-opacity="0.03"/>
<line x1="1125.37" y1="817.548" x2="1125.37" y2="1427" stroke="black" stroke-opacity="0.03"/>
<line x1="559.961" y1="817.548" x2="559.961" y2="1427" stroke="black" stroke-opacity="0.03"/>
<line x1="857.545" y1="817.548" x2="857.545" y2="1427" stroke="black" stroke-opacity="0.03"/>
<line x1="589.719" y1="817.548" x2="589.719" y2="1427" stroke="black" stroke-opacity="0.03"/>
<line x1="887.303" y1="817.548" x2="887.303" y2="1427" stroke="black" stroke-opacity="0.03"/>
<line x1="291.635" y1="847.402" x2="1148.68" y2="847.402" stroke="black" stroke-opacity="0.03"/>
<line x1="291.635" y1="876.565" x2="1148.68" y2="876.565" stroke="black" stroke-opacity="0.03"/>
<line x1="291.635" y1="906.323" x2="1148.68" y2="906.323" stroke="black" stroke-opacity="0.03"/>
<line x1="291.635" y1="936.082" x2="1148.68" y2="936.082" stroke="black" stroke-opacity="0.03"/>
<line x1="291.635" y1="965.84" x2="1148.68" y2="965.84" stroke="black" stroke-opacity="0.03"/>
<line x1="291.635" y1="995.598" x2="1148.68" y2="995.598" stroke="black" stroke-opacity="0.03"/>
<line x1="1178.73" y1="817.548" x2="1178.73" y2="1427" stroke="black" stroke-opacity="0.03"/>
<line x1="1208.49" y1="817.548" x2="1208.49" y2="1427" stroke="black" stroke-opacity="0.03"/>
<line x1="1238.25" y1="817.548" x2="1238.25" y2="1427" stroke="black" stroke-opacity="0.03"/>
<line x1="1268.01" y1="817.548" x2="1268.01" y2="1427" stroke="black" stroke-opacity="0.03"/>
<line x1="1297.77" y1="817.548" x2="1297.77" y2="1427" stroke="black" stroke-opacity="0.03"/>
<line x1="1327.53" y1="817.548" x2="1327.53" y2="1427" stroke="black" stroke-opacity="0.03"/>
<line x1="1357.28" y1="817.548" x2="1357.28" y2="1427" stroke="black" stroke-opacity="0.03"/>
<line x1="1387.04" y1="817.548" x2="1387.04" y2="1427" stroke="black" stroke-opacity="0.03"/>
<line x1="1416.8" y1="817.548" x2="1416.8" y2="1427" stroke="black" stroke-opacity="0.03"/>
<line x1="1148.48" y1="847.402" x2="2005.52" y2="847.402" stroke="black" stroke-opacity="0.03"/>
<line x1="1148.48" y1="876.565" x2="2005.52" y2="876.565" stroke="black" stroke-opacity="0.03"/>
<line x1="1148.48" y1="906.323" x2="2005.52" y2="906.323" stroke="black" stroke-opacity="0.03"/>
<line x1="1148.48" y1="936.082" x2="2005.52" y2="936.082" stroke="black" stroke-opacity="0.03"/>
<line x1="1148.48" y1="965.84" x2="2005.52" y2="965.84" stroke="black" stroke-opacity="0.03"/>
<line x1="1148.48" y1="995.598" x2="2005.52" y2="995.598" stroke="black" stroke-opacity="0.03"/>
<line x1="60.2212" y1="817.548" x2="60.2212" y2="1427" stroke="black" stroke-opacity="0.03"/>
<line x1="89.9795" y1="817.548" x2="89.9795" y2="1427" stroke="black" stroke-opacity="0.03"/>
<line x1="119.738" y1="817.548" x2="119.738" y2="1427" stroke="black" stroke-opacity="0.03"/>
<line x1="149.496" y1="817.548" x2="149.496" y2="1427" stroke="black" stroke-opacity="0.03"/>
<line x1="179.255" y1="817.548" x2="179.255" y2="1427" stroke="black" stroke-opacity="0.03"/>
<line x1="209.013" y1="817.548" x2="209.013" y2="1427" stroke="black" stroke-opacity="0.03"/>
<line x1="238.771" y1="817.548" x2="238.771" y2="1427" stroke="black" stroke-opacity="0.03"/>
<line x1="268.53" y1="817.548" x2="268.53" y2="1427" stroke="black" stroke-opacity="0.03"/>
<line x1="0.704346" y1="817.548" x2="0.704346" y2="1427" stroke="black" stroke-opacity="0.03"/>
<line x1="30.4629" y1="817.548" x2="30.4629" y2="1427" stroke="black" stroke-opacity="0.03"/>
<line x1="-565.205" y1="847.402" x2="291.837" y2="847.402" stroke="black" stroke-opacity="0.03"/>
<line x1="-565.205" y1="876.565" x2="291.837" y2="876.565" stroke="black" stroke-opacity="0.03"/>
<line x1="-565.205" y1="906.323" x2="291.837" y2="906.323" stroke="black" stroke-opacity="0.03"/>
<line x1="-565.205" y1="936.082" x2="291.837" y2="936.082" stroke="black" stroke-opacity="0.03"/>
<line x1="-565.205" y1="965.84" x2="291.837" y2="965.84" stroke="black" stroke-opacity="0.03"/>
<line x1="-565.205" y1="995.598" x2="291.837" y2="995.598" stroke="black" stroke-opacity="0.03"/>
<line x1="321.793" y1="207.452" x2="321.793" y2="816.904" stroke="black" stroke-opacity="0.03"/>
<line x1="619.377" y1="207.452" x2="619.377" y2="816.904" stroke="black" stroke-opacity="0.03"/>
<line x1="916.961" y1="207.452" x2="916.961" y2="816.904" stroke="black" stroke-opacity="0.03"/>
<line x1="351.552" y1="207.452" x2="351.552" y2="816.904" stroke="black" stroke-opacity="0.03"/>
<line x1="649.135" y1="207.452" x2="649.135" y2="816.904" stroke="black" stroke-opacity="0.03"/>
<line x1="946.719" y1="207.452" x2="946.719" y2="816.904" stroke="black" stroke-opacity="0.03"/>
<line x1="381.31" y1="207.452" x2="381.31" y2="816.904" stroke="black" stroke-opacity="0.03"/>
<line x1="678.894" y1="207.452" x2="678.894" y2="816.904" stroke="black" stroke-opacity="0.03"/>
<line x1="976.478" y1="207.452" x2="976.478" y2="816.904" stroke="black" stroke-opacity="0.03"/>
<line x1="411.068" y1="207.452" x2="411.068" y2="816.904" stroke="black" stroke-opacity="0.03"/>
<line x1="708.652" y1="207.452" x2="708.652" y2="816.904" stroke="black" stroke-opacity="0.03"/>
<line x1="1006.24" y1="207.452" x2="1006.24" y2="816.904" stroke="black" stroke-opacity="0.03"/>
<line x1="440.827" y1="207.452" x2="440.827" y2="816.904" stroke="black" stroke-opacity="0.03"/>
<line x1="738.411" y1="207.452" x2="738.411" y2="816.904" stroke="black" stroke-opacity="0.03"/>
<line x1="1035.99" y1="207.452" x2="1035.99" y2="816.904" stroke="black" stroke-opacity="0.03"/>
<line x1="470.585" y1="207.452" x2="470.585" y2="816.904" stroke="black" stroke-opacity="0.03"/>
<line x1="768.169" y1="207.452" x2="768.169" y2="816.904" stroke="black" stroke-opacity="0.03"/>
<line x1="1065.75" y1="207.452" x2="1065.75" y2="816.904" stroke="black" stroke-opacity="0.03"/>
<line x1="500.344" y1="207.452" x2="500.344" y2="816.904" stroke="black" stroke-opacity="0.03"/>
<line x1="797.927" y1="207.452" x2="797.927" y2="816.904" stroke="black" stroke-opacity="0.03"/>
<line x1="1095.51" y1="207.452" x2="1095.51" y2="816.904" stroke="black" stroke-opacity="0.03"/>
<line x1="530.102" y1="207.452" x2="530.102" y2="816.904" stroke="black" stroke-opacity="0.03"/>
<line x1="827.686" y1="207.452" x2="827.686" y2="816.904" stroke="black" stroke-opacity="0.03"/>
<line x1="1125.27" y1="207.452" x2="1125.27" y2="816.904" stroke="black" stroke-opacity="0.03"/>
<line x1="559.86" y1="207.452" x2="559.86" y2="816.904" stroke="black" stroke-opacity="0.03"/>
<line x1="857.444" y1="207.452" x2="857.444" y2="816.904" stroke="black" stroke-opacity="0.03"/>
<line x1="589.619" y1="207.452" x2="589.619" y2="816.904" stroke="black" stroke-opacity="0.03"/>
<line x1="887.203" y1="207.452" x2="887.203" y2="816.904" stroke="black" stroke-opacity="0.03"/>
<line x1="291.535" y1="237.306" x2="1148.58" y2="237.306" stroke="black" stroke-opacity="0.03"/>
<line x1="291.535" y1="474.182" x2="1148.58" y2="474.182" stroke="black" stroke-opacity="0.03"/>
<line x1="291.535" y1="266.469" x2="1148.58" y2="266.469" stroke="black" stroke-opacity="0.03"/>
<line x1="291.535" y1="503.345" x2="1148.58" y2="503.345" stroke="black" stroke-opacity="0.03"/>
<line x1="291.535" y1="296.227" x2="1148.58" y2="296.227" stroke="black" stroke-opacity="0.03"/>
<line x1="291.535" y1="533.104" x2="1148.58" y2="533.104" stroke="black" stroke-opacity="0.03"/>
<line x1="291.535" y1="325.985" x2="1148.58" y2="325.985" stroke="black" stroke-opacity="0.03"/>
<line x1="291.535" y1="562.862" x2="1148.58" y2="562.862" stroke="black" stroke-opacity="0.03"/>
<line x1="291.535" y1="355.744" x2="1148.58" y2="355.744" stroke="black" stroke-opacity="0.03"/>
<line x1="291.535" y1="592.621" x2="1148.58" y2="592.621" stroke="black" stroke-opacity="0.03"/>
<line x1="291.535" y1="385.502" x2="1148.58" y2="385.502" stroke="black" stroke-opacity="0.03"/>
<line x1="291.535" y1="622.379" x2="1148.58" y2="622.379" stroke="black" stroke-opacity="0.03"/>
<line x1="291.535" y1="415.261" x2="1148.58" y2="415.261" stroke="black" stroke-opacity="0.03"/>
<line x1="291.535" y1="652.138" x2="1148.58" y2="652.138" stroke="black" stroke-opacity="0.03"/>
<line x1="291.535" y1="445.019" x2="1148.58" y2="445.019" stroke="black" stroke-opacity="0.03"/>
<line x1="291.535" y1="681.896" x2="1148.58" y2="681.896" stroke="black" stroke-opacity="0.03"/>
<line x1="291.535" y1="712.845" x2="1148.58" y2="712.845" stroke="black" stroke-opacity="0.03"/>
<line x1="291.535" y1="742.008" x2="1148.58" y2="742.008" stroke="black" stroke-opacity="0.03"/>
<line x1="291.535" y1="771.766" x2="1148.58" y2="771.766" stroke="black" stroke-opacity="0.03"/>
<line x1="291.535" y1="801.525" x2="1148.58" y2="801.525" stroke="black" stroke-opacity="0.03"/>
</svg>
