<svg id="Calque_4" data-name="Calque 4" xmlns="http://www.w3.org/2000/svg" viewBox="0 0 539.57 661.41">
  <defs>
    <style>
      .cls-1 {
        opacity: .56;
      }

      .cls-1, .cls-2 {
        fill: #2689be;
      }

      .cls-3 {
        fill: #272838;
      }
    </style>
  </defs>
  <rect class="cls-2" x="0" y="338.8" width="40.89" height="3.18" rx="1.59" ry="1.59"/>
  <rect class="cls-1" x="0" y="344.06" width="15.79" height="3.18" rx="1.59" ry="1.59"/>
  <rect class="cls-2" x="17.25" y="344.06" width="8.19" height="3.18" rx="1.59" ry="1.59"/>
  <rect class="cls-3" x="26.91" y="344.06" width="13.98" height="3.18" rx="1.59" ry="1.59"/>
  <rect class="cls-3" x="10.35" y="349.26" width="20.18" height="3.18" rx="1.59" ry="1.59"/>
  <rect class="cls-2" x="0" y="349.26" width="8.57" height="3.18" rx="1.59" ry="1.59"/>
  <rect class="cls-2" x="32.33" y="349.26" width="8.57" height="3.18" rx="1.59" ry="1.59"/>
  <rect class="cls-3" x="10.36" y="354.21" width="14.31" height="3.18" rx="1.59" ry="1.59"/>
  <rect class="cls-1" x="0" y="354.3" width="9.02" height="3.18" rx="1.59" ry="1.59"/>
  <rect class="cls-2" x="26.01" y="354.21" width="9.02" height="3.18" rx="1.59" ry="1.59"/>
  <rect class="cls-3" x="36.38" y="354.21" width="4.51" height="3.18" rx="1.59" ry="1.59"/>
  <rect class="cls-3" x="0" y="359.34" width="17.22" height="3.18" rx="1.59" ry="1.59"/>
  <rect class="cls-1" x="19.27" y="359.34" width="7.66" height="3.18" rx="1.59" ry="1.59"/>
  <rect class="cls-1" x="28.99" y="359.34" width="11.9" height="3.18" rx="1.59" ry="1.59"/>
  <rect class="cls-3" x="23.05" y="364.48" width="17.84" height="3.18" rx="1.59" ry="1.59"/>
  <rect class="cls-2" x="13.88" y="364.53" width="7.37" height="3.18" rx="1.59" ry="1.59"/>
  <rect class="cls-3" x="0" y="364.53" width="12.08" height="3.18" rx="1.59" ry="1.59"/>
  <rect class="cls-3" x="9.1" y="369.62" width="22.68" height="3.18" rx="1.59" ry="1.59"/>
  <rect class="cls-1" x="0" y="369.7" width="6.94" height="3.18" rx="1.59" ry="1.59"/>
  <rect class="cls-1" x="33.95" y="369.7" width="6.94" height="3.18" rx="1.59" ry="1.59"/>
  <rect class="cls-3" x="8.89" y="374.75" width="18.61" height="3.35" rx="1.59" ry="1.59"/>
  <rect class="cls-1" x="0" y="374.92" width="6.54" height="3.18" rx="1.59" ry="1.59"/>
  <rect class="cls-2" x="29.84" y="374.92" width="11.05" height="3.18" rx="1.59" ry="1.59"/>
</svg>