<svg width="46" height="46" viewBox="0 0 46 46" fill="none" xmlns="http://www.w3.org/2000/svg">
<path d="M4.18639 40.8279L0 0H46L41.808 40.8214L22.9721 45.3625L4.18639 40.8279Z" fill="#E44F26"/>
<path d="M23 41.8923L38.2215 38.2228L41.8024 3.33899H23V41.8923Z" fill="#F1662A"/>
<path d="M22.9998 18.4804H15.3797L14.8544 13.3528H22.9998V8.34509H22.9793H8.56079L8.69866 9.68977L10.1128 23.4881H22.9998V18.4804Z" fill="#EBEBEB"/>
<path d="M23.0001 31.4848L22.974 31.4913L16.5612 29.9863L16.1513 25.9927H13.0344H10.3701L11.1768 33.8534L22.974 36.7015L23.0001 36.695V31.4848Z" fill="#EBEBEB"/>
<path d="M22.9795 18.4804V23.4881H30.0705L29.4035 29.983L22.9795 31.4897V36.6999L34.786 33.8534L34.8717 33.0077L36.2243 19.8251L36.3659 18.4804H34.8139H22.9795Z" fill="white"/>
<path d="M22.9795 8.34509V11.4557V13.3414V13.3528H36.8708H36.8894L37.0049 12.2284L37.2676 9.68977L37.4055 8.34509H22.9795Z" fill="white"/>
</svg>
