<svg width="40" height="46" viewBox="0 0 40 46" fill="none" xmlns="http://www.w3.org/2000/svg">
<path d="M3.63908 41.1481L6.10352e-05 0.316956H40.0001L36.3562 41.1417L19.9758 45.6831L3.63908 41.1481Z" fill="#1572B6"/>
<path d="M20.0178 8.31268V11.4235V13.3078V13.3208H7.93748H7.92127L7.82082 12.1947L7.59237 9.65585L7.47247 8.31268H20.0178Z" fill="#EBEBEB"/>
<path d="M20.0001 18.4488V21.5596V23.4439V23.4569H14.5092H14.493L14.3925 22.3308L14.1657 19.792L14.0458 18.4488H20.0001Z" fill="#EBEBEB"/>
<path d="M20.0001 42.2126L33.2373 38.5428L36.3513 3.65619H20.0001V42.2126Z" fill="#33A9DC"/>
<path d="M20.0001 18.4488H26.6268L27.0837 13.3208H20.0001V8.31268H20.0179H32.5568L32.4369 9.65585L31.2071 23.4569H20.0001V18.4488Z" fill="white"/>
<path d="M20.0308 31.4543L20.0081 31.4608L14.4313 29.954L14.0748 25.9601H11.3642H9.0473L9.74886 33.8231L20.0065 36.6714L20.0308 36.6649V31.4543Z" fill="#EBEBEB"/>
<path d="M26.2006 23.2447L25.5979 29.9508L20.013 31.4576V36.6682L30.2787 33.8231L30.3549 32.9774L31.2249 23.2447H26.2006Z" fill="white"/>
</svg>
