<svg width="40" height="40" viewBox="0 0 40 40" fill="none" xmlns="http://www.w3.org/2000/svg">
<path d="M0 0H40V40H0V0Z" fill="#F5DE19"/>
<path d="M26.87 31.25C27.2108 31.9422 27.7403 32.5241 28.3975 32.9285C29.0546 33.3329 29.8127 33.5434 30.5843 33.5357C32.1414 33.5357 33.1371 32.7571 33.1371 31.6785C33.1371 30.3928 32.1143 29.9328 30.4 29.1828L29.46 28.78C26.7457 27.6243 24.9457 26.1771 24.9457 23.1171C24.9457 20.2985 27.0886 18.1514 30.45 18.1514C31.5382 18.0728 32.6254 18.3164 33.576 18.8516C34.5266 19.3869 35.2986 20.1902 35.7957 21.1614L32.8571 23.04C32.6657 22.5584 32.3325 22.1464 31.9016 21.8587C31.4706 21.5709 30.9624 21.4209 30.4443 21.4285C30.2182 21.4059 29.9899 21.4306 29.774 21.5011C29.558 21.5716 29.3591 21.6862 29.1898 21.8378C29.0206 21.9894 28.8849 22.1746 28.7912 22.3816C28.6975 22.5886 28.648 22.8128 28.6457 23.04C28.6457 24.1671 29.3443 24.6243 30.9571 25.3257L31.8971 25.7285C35.0914 27.0985 36.8971 28.4943 36.8971 31.6328C36.8971 35.0171 34.2386 36.8714 30.6686 36.8714C29.2776 36.96 27.8907 36.6442 26.6752 35.9621C25.4597 35.2799 24.4676 34.2606 23.8186 33.0271L26.87 31.25ZM13.5914 31.5757C14.1814 32.6228 14.7186 33.5085 16.01 33.5085C17.2443 33.5085 18.0243 33.0257 18.0243 31.1471V18.3657H21.7829V31.1971C21.7829 35.0885 19.4971 36.86 16.17 36.86C14.9939 36.9243 13.8259 36.6312 12.8196 36.0192C11.8132 35.4073 11.0155 34.5051 10.5314 33.4314L13.5914 31.5757Z" fill="black"/>
</svg>
