<svg width="40" height="30" viewBox="0 0 40 30" fill="none" xmlns="http://www.w3.org/2000/svg">
<path d="M34.4392 17.2581C33.1832 17.2597 31.944 17.5469 30.8153 18.098C30.4619 17.5116 30.189 16.8802 30.0039 16.221C29.8976 15.7043 29.873 15.1741 29.9311 14.6498C30.0532 14.0728 30.2116 13.5041 30.4053 12.9471C30.3982 12.8742 30.3182 12.53 29.514 12.5186C28.7098 12.5071 28.017 12.6714 27.9427 12.8842C27.8031 13.273 27.6909 13.6711 27.607 14.0755C26.9415 15.7175 26.1222 17.293 25.1602 18.7808C24.6212 17.8972 24.3995 16.8562 24.5316 15.8297C24.6537 15.2527 24.8121 14.684 25.0059 14.127C24.9987 14.0541 24.9187 13.7099 24.1145 13.6984C23.3103 13.687 22.6176 13.8513 22.5433 14.0641C22.469 14.277 22.3747 14.7783 22.2076 15.2554C22.0405 15.7325 20.0892 20.0921 19.5779 21.2162C19.315 21.7876 19.0879 22.2533 18.9279 22.5675C18.9203 22.5879 18.9108 22.6076 18.8994 22.6261C18.7565 22.8961 18.6808 23.0432 18.6808 23.0432V23.0503C18.5708 23.2475 18.4537 23.4303 18.3951 23.4303C18.293 23.0222 18.2979 22.5946 18.4094 22.189C18.6951 20.6763 19.395 18.3251 19.3879 18.2437C19.3879 18.1994 19.5193 17.7909 18.9351 17.5795C18.7996 17.515 18.6474 17.4941 18.4996 17.5197C18.3517 17.5453 18.2154 17.6161 18.1094 17.7223C18.058 17.7223 18.0223 17.8466 18.0223 17.8466C18.0223 17.8466 18.658 15.2026 16.8096 15.2026C16.0898 15.3474 15.4062 15.6346 14.7991 16.0475C14.1919 16.4603 13.6735 16.9904 13.2742 17.6066C12.7771 17.8766 11.7187 18.4537 10.5859 19.075C10.1574 19.3164 9.70887 19.5578 9.2932 19.7892C9.26463 19.7607 9.23464 19.7235 9.20607 19.695C6.9563 17.2981 2.82101 15.6068 2.99956 12.4C3.06527 11.2316 3.46666 8.16329 10.9402 4.43653C17.091 1.40541 21.9862 2.24533 22.8332 4.10799C24.046 6.76772 20.2107 11.7058 13.8556 12.4214C13.1525 12.5641 12.4264 12.5469 11.7309 12.3711C11.0354 12.1953 10.3883 11.8654 9.83743 11.4058C9.50175 11.0401 9.45033 11.0187 9.32606 11.0916C9.12179 11.2016 9.25321 11.5301 9.32606 11.7201C9.56849 12.1588 9.89641 12.5445 10.2904 12.8544C10.6844 13.1642 11.1366 13.392 11.6201 13.5242C14.1202 14.0644 16.7268 13.8061 19.0722 12.7857C22.929 11.2958 25.9286 7.1534 25.0487 3.68375C24.1645 0.162683 18.3209 -0.998627 12.79 0.969743C9.3257 2.13544 6.12471 3.97158 3.36952 6.37348C0.322691 9.22319 -0.158689 11.6986 0.038434 12.7371C0.752647 16.4196 5.82499 18.8151 7.85478 20.5935C7.75193 20.652 7.65765 20.7034 7.57766 20.7463C6.56205 21.2505 2.69102 23.2746 1.72112 25.4144C0.625517 27.8427 1.89682 29.5783 2.73673 29.8125C4.00232 30.1155 5.33093 30.0157 6.53707 29.5271C7.74321 29.0385 8.76669 28.1854 9.46461 27.0871C10.0589 26.176 10.4242 25.1349 10.5294 24.0522C10.6347 22.9696 10.4766 21.8776 10.0688 20.8691C10.0619 20.8528 10.0523 20.8379 10.0403 20.8249L10.8359 20.3578C11.3544 20.0507 11.8658 19.7664 12.3043 19.5321C12.007 20.3898 11.8324 21.2853 11.7858 22.1919C11.6848 23.5814 12.1101 24.9581 12.9771 26.0486C13.109 26.1622 13.2622 26.2484 13.4277 26.3024C13.5932 26.3563 13.7678 26.3769 13.9413 26.3629C14.7984 26.3629 15.1912 25.6487 15.6211 24.8002C16.1468 23.7631 16.621 22.5575 16.621 22.5575C16.621 22.5575 16.0297 25.8158 17.6366 25.8158C18.2209 25.8158 18.8122 25.0559 19.0765 24.673V24.6802C19.0765 24.6802 19.0908 24.6588 19.1208 24.6073L19.215 24.4545V24.4402C19.4493 24.0317 19.975 23.1032 20.7563 21.5619C21.7648 19.575 22.7361 17.091 22.7361 17.091C22.8298 17.6369 22.9591 18.1761 23.1232 18.7051C23.3585 19.3463 23.6367 19.971 23.956 20.5749C23.7217 20.9034 23.576 21.0863 23.576 21.0863L23.5832 21.0934C23.3932 21.3419 23.1889 21.6119 22.9618 21.8748C22.2861 22.6177 21.6591 23.4035 21.0849 24.2274C20.9995 24.3657 20.9702 24.5315 21.0028 24.6907C21.0355 24.85 21.1277 24.9908 21.2606 25.0844C21.5613 25.2409 21.904 25.2974 22.239 25.2458C22.7439 25.2173 23.2403 25.1038 23.7074 24.9102C24.1588 24.7513 24.5847 24.5275 24.9716 24.2459C25.3705 23.9696 25.6915 23.5953 25.9039 23.159C26.1163 22.7227 26.2129 22.2392 26.1843 21.7548C26.1394 21.1446 25.9835 20.5477 25.7244 19.9935C25.7972 19.8907 25.8672 19.7892 25.9358 19.6864C26.7479 18.4742 27.4799 17.2102 28.127 15.9025C28.2207 16.4484 28.35 16.9876 28.5141 17.5166C28.7081 18.0708 28.947 18.6082 29.2283 19.1236C28.294 19.8424 27.5581 20.7872 27.09 21.869C26.63 23.1989 26.9871 23.7974 27.6613 23.936C28.0303 23.9614 28.3991 23.8858 28.7284 23.7174C29.2124 23.5583 29.6684 23.3241 30.0797 23.0232C30.5133 22.7673 30.8764 22.4076 31.1365 21.9765C31.3966 21.5454 31.5454 21.0564 31.5695 20.5535C31.5371 20.0515 31.4237 19.558 31.2338 19.0922C32.4667 18.6105 33.8034 18.457 35.1134 18.6465C38.5902 19.055 39.2773 21.2248 39.1459 22.139C39.0842 22.4631 38.9539 22.7702 38.7637 23.0398C38.5735 23.3093 38.3278 23.535 38.0431 23.7017C37.8017 23.8545 37.7217 23.906 37.7432 24.016C37.7717 24.1774 37.886 24.1688 38.0931 24.1402C38.6171 23.9774 39.0795 23.6595 39.4191 23.2285C39.7588 22.7976 39.9599 22.2738 39.9958 21.7262C40.1058 19.5836 38.0603 17.2338 34.4435 17.2552L34.4392 17.2581ZM7.61337 26.2972C6.45921 27.5542 4.85223 28.0284 4.15801 27.627C3.41237 27.1985 3.7052 25.3415 5.1222 24.0102C5.96276 23.2536 6.87127 22.576 7.83621 21.9862C8.00476 21.8833 8.25331 21.7376 8.55042 21.5576L8.63041 21.5134L8.80611 21.4034C9.05926 22.2516 9.08222 23.1518 8.87262 24.0118C8.66302 24.8718 8.22841 25.6606 7.61337 26.2972ZM16.0139 20.5835C15.6126 21.5619 14.7726 24.0688 14.2613 23.9288C13.8227 23.8117 13.5471 21.9119 14.1741 20.0349C14.4907 19.1314 14.9519 18.2852 15.5397 17.5295C16.1682 16.8281 16.8624 16.5939 17.0296 16.8795C16.8771 18.1578 16.5348 19.4062 16.0139 20.5835ZM22.9461 23.9003C22.7775 23.9874 22.6176 24.0431 22.5447 24.0031C22.4933 23.9745 22.6176 23.8603 22.6176 23.8603C22.6176 23.8603 23.4875 22.9246 23.8303 22.5018C24.0274 22.2533 24.2588 21.9619 24.5102 21.6319V21.7262C24.5102 22.8432 23.4289 23.596 22.9475 23.9031L22.9461 23.9003ZM28.2941 22.6804C28.1698 22.5933 28.1913 22.3004 28.6084 21.3877C28.8984 20.8014 29.3036 20.2797 29.7997 19.8535C29.8757 20.0698 29.9153 20.2971 29.9168 20.5263C29.9224 21.0142 29.7664 21.4902 29.4732 21.8801C29.1799 22.27 28.7658 22.5519 28.2955 22.6818L28.2941 22.6804Z" fill="#CD6799"/>
</svg>
